<svg viewBox="0 0 32 32" fill="none" xmlns="http://www.w3.org/2000/svg">
 <g clipPath="url(#clip0_16363_87646)">
        <circle cx="16" cy="16" r="16" fill="#0C2A33" />
        <path
          d="M29 16C29 23.1797 23.1797 29 16 29C8.8203 29 3 23.1797 3 16C3 8.8203 8.8203 3 16 3C23.1797 3 29 8.8203 29 16Z"
          fill="white"
        />
        <path
          fillRule="evenodd"
          clipRule="evenodd"
          d="M15.6001 5.0001C15.6001 4.77918 15.7792 4.6001 16.0001 4.6001C20.0987 4.6001 23.6918 6.76332 25.7003 10.0084C25.8166 10.1963 25.7586 10.4428 25.5707 10.5591C25.3829 10.6753 25.1364 10.6173 25.0201 10.4295C23.1512 7.41008 19.8102 5.4001 16.0001 5.4001C15.7792 5.4001 15.6001 5.22101 15.6001 5.0001ZM26.2186 11.9004C26.4265 11.8257 26.6556 11.9336 26.7304 12.1414C27.164 13.3471 27.4001 14.6464 27.4001 16.0001C27.4001 16.221 27.221 16.4001 27.0001 16.4001C26.7792 16.4001 26.6001 16.221 26.6001 16.0001C26.6001 14.7401 26.3804 13.5322 25.9776 12.4122C25.9028 12.2043 26.0107 11.9752 26.2186 11.9004Z"
          fill="#0C2A33"
        />
        <path
          fillRule="evenodd"
          clipRule="evenodd"
          d="M16.0001 3.4001C9.04131 3.4001 3.4001 9.04131 3.4001 16.0001C3.4001 22.9589 9.04131 28.6001 16.0001 28.6001C18.8491 28.6001 21.4761 27.655 23.5865 26.0611C23.7628 25.928 24.0137 25.963 24.1468 26.1393C24.2799 26.3155 24.245 26.5664 24.0687 26.6995C21.8242 28.3947 19.029 29.4001 16.0001 29.4001C8.59948 29.4001 2.6001 23.4007 2.6001 16.0001C2.6001 8.59948 8.59948 2.6001 16.0001 2.6001C23.4007 2.6001 29.4001 8.59948 29.4001 16.0001C29.4001 16.9745 29.296 17.9251 29.0982 18.8412C29.0516 19.0571 28.8388 19.1944 28.6228 19.1477C28.4069 19.1011 28.2696 18.8883 28.3162 18.6723C28.5021 17.8114 28.6001 16.9174 28.6001 16.0001C28.6001 9.04131 22.9589 3.4001 16.0001 3.4001Z"
          fill="#0C2A33"
        />
        <path
          d="M10.4205 19.005C10.4205 19.316 10.6681 19.5001 11.068 19.5001H15.3399C15.6192 19.5001 15.7906 19.3478 15.7906 19.1002C15.7906 18.859 15.6129 18.7066 15.3399 18.7066H11.5504V18.6432L14.1148 15.6788C15.213 14.4093 15.5367 13.8062 15.5367 13.0001C15.5367 11.6163 14.4703 10.6578 12.9405 10.6578C11.3155 10.6578 10.2872 11.756 10.2872 12.8668C10.2872 13.1588 10.4586 13.3492 10.7062 13.3492C10.9347 13.3492 11.087 13.1969 11.1441 12.9112C11.2901 12.0162 11.9757 11.4386 12.8897 11.4386C13.9308 11.4386 14.629 12.086 14.629 13.0382C14.629 13.6666 14.3497 14.2252 13.607 15.0758L10.8268 18.294C10.503 18.6686 10.4205 18.8082 10.4205 19.005Z"
          fill="#0C2A33"
        />
        <path
          d="M20.818 19.1002C20.818 19.3985 20.964 19.5699 21.2369 19.5699C21.5162 19.5699 21.6686 19.3985 21.6686 19.1002V17.6021H22.462C22.7604 17.6021 22.9317 17.4498 22.9317 17.2022C22.9317 16.9483 22.754 16.8023 22.462 16.8023H21.6686V11.5274C21.6686 11.026 21.402 10.7467 20.9386 10.7467C20.5831 10.7467 20.3546 10.9117 20.0436 11.3624C18.6725 13.3937 17.8219 14.6759 16.9078 16.2882C16.7174 16.631 16.6349 16.8277 16.6349 17.0372C16.6349 17.3673 16.9015 17.6021 17.3268 17.6021H20.818V19.1002ZM17.5108 16.8023V16.7516C18.4059 15.2027 19.6754 13.2413 20.7672 11.6417H20.818V16.8023H17.5108Z"
          fill="#0C2A33"
        />
        <path
          d="M7.45752 19.6871L5.80121 16.3744C5.68873 16.1495 5.44771 16.0188 5.20103 16.0679C4.65056 16.1774 3.68134 16.4397 3.12545 16.9954C0.90393 19.2164 2.27263 23.0237 4.61856 25.9541C6.9645 28.8846 12.582 31.9266 15.0704 28.4427C15.398 28.0395 15.6895 27.4073 15.8711 26.9637C15.9887 26.6765 15.8487 26.3553 15.5651 26.2293L11.8714 24.5877C11.6928 24.5083 11.4867 24.5209 11.3191 24.6215L9.33382 25.8126C9.18406 25.9025 9.00282 25.9227 8.84487 25.8481C8.47437 25.6733 7.75758 25.2613 7.10731 24.461C6.46545 23.6711 6.23224 22.991 6.15161 22.6689C6.11964 22.5412 6.14839 22.409 6.21612 22.2961L7.43536 20.2641C7.5409 20.0882 7.54926 19.8705 7.45752 19.6871Z"
          fill="#E9F6F8"
        />
        <path
          fillRule="evenodd"
          clipRule="evenodd"
          d="M5.12321 15.6757C5.56216 15.5883 5.97343 15.8241 6.15922 16.1956L7.81552 19.5082C7.96843 19.8141 7.9545 20.1768 7.77859 20.47L6.55935 22.502C6.53537 22.542 6.53838 22.5659 6.53987 22.5719C6.60843 22.8457 6.81819 23.4707 7.41799 24.2088C8.02017 24.9499 8.68249 25.3292 9.01581 25.4865C9.03539 25.4957 9.07524 25.5015 9.12826 25.4697L11.1135 24.2785C11.3929 24.1109 11.7364 24.0899 12.0341 24.2222L15.7278 25.8639C16.1969 26.0723 16.446 26.6159 16.2415 27.1154C16.0605 27.5574 15.7537 28.2321 15.389 28.6852C13.9933 30.6287 11.7397 30.6975 9.66112 29.9821C7.57616 29.2645 5.52364 27.7246 4.30654 26.2042C3.10925 24.7086 2.14427 22.9697 1.76913 21.2963C1.39272 19.6172 1.60361 17.9516 2.84288 16.7126C3.17606 16.3795 3.61462 16.1502 4.01993 15.9918C4.42969 15.8317 4.83413 15.7332 5.12321 15.6757ZM5.44368 16.5534C5.4045 16.4751 5.33372 16.4495 5.27932 16.4603C5.01793 16.5123 4.66252 16.5996 4.31109 16.737C3.95519 16.876 3.6312 17.0557 3.4085 17.2784C2.42624 18.2604 2.21072 19.6089 2.54976 21.1213C2.89008 22.6394 3.78241 24.2694 4.93107 25.7042C6.0599 27.1143 7.9891 28.5606 9.92147 29.2257C11.8567 29.8917 13.6519 29.7409 14.7451 28.2103L14.7524 28.2001L14.7602 28.1905C15.0472 27.8373 15.3202 27.2541 15.5011 26.8123C15.5318 26.7373 15.5009 26.6385 15.4029 26.5949L11.7092 24.9533C11.6497 24.9268 11.581 24.931 11.5251 24.9645L9.53986 26.1557C9.29336 26.3036 8.97072 26.3498 8.6744 26.21C8.26671 26.0176 7.49546 25.5728 6.79711 24.7133C6.11318 23.8716 5.85653 23.1364 5.76382 22.7662C5.70136 22.5167 5.76187 22.2762 5.87336 22.0904L7.0926 20.0584C7.12778 19.9997 7.13056 19.9272 7.09998 19.866L5.44368 16.5534L5.80145 16.3745L5.44368 16.5534Z"
          fill="#0C2A33"
        />
        <path
          fillRule="evenodd"
          clipRule="evenodd"
          d="M25.1536 24.3001C25.2641 24.1088 25.5087 24.0432 25.7 24.1537L26.5747 24.6587C26.766 24.7691 26.8316 25.0138 26.7211 25.2051C26.6107 25.3964 26.366 25.4619 26.1747 25.3515L25.3 24.8465C25.1087 24.736 25.0432 24.4914 25.1536 24.3001ZM26.0536 22.7412C26.1641 22.5499 26.4087 22.4844 26.6 22.5948L27.4747 23.0998C27.666 23.2103 27.7316 23.4549 27.6211 23.6462C27.5107 23.8375 27.266 23.9031 27.0747 23.7926L26.2 23.2876C26.0087 23.1772 25.9432 22.9325 26.0536 22.7412ZM26.9536 21.1824C27.0641 20.9911 27.3087 20.9255 27.5 21.036L28.3747 21.541C28.566 21.6514 28.6316 21.8961 28.5211 22.0874C28.4107 22.2787 28.166 22.3443 27.9747 22.2338L27.1 21.7288C26.9087 21.6183 26.8432 21.3737 26.9536 21.1824Z"
          fill="#EF4550"
        />
      </g>
      <defs>
        <clipPath id="clip0_16363_87646">
          <rect width="32" height="32" fill="white" />
        </clipPath>
      </defs>
</svg>