<svg viewBox="0 0 32 32" fill="none" xmlns="http://www.w3.org/2000/svg">
  <circle cx="16" cy="16" r="16" fill="#0C2A33" />
    <path
      d="M6.49182 4.52905H25.5383V15.1104L18.343 20.4011H13.5814L6.49182 15.1104V4.52905Z"
      fill="white"
    />
    <path
      d="M28.3954 27.4302L18.3088 20.3255H13.6914L3.60474 27.4302"
      fill="white"
    />
    <path d="M18.5 20.5L28.5 13V27.5L18.5 20.5Z" fill="#E9F6F8" />
    <path d="M13.5 20.5L3.5 13V27.5L13.5 20.5Z" fill="#E9F6F8" />
    <path
      d="M9.34884 11.2558C9.34884 11.0888 9.48419 10.9535 9.65116 10.9535H22.3488C22.5158 10.9535 22.6512 11.0888 22.6512 11.2558C22.6512 11.4228 22.5158 11.5581 22.3488 11.5581H9.65116C9.48419 11.5581 9.34884 11.4228 9.34884 11.2558Z"
      fill="#0C2A33"
    />
    <path
      d="M9.34884 14.2791C9.34884 14.1121 9.48419 13.9767 9.65116 13.9767H22.3488C22.5158 13.9767 22.6512 14.1121 22.6512 14.2791C22.6512 14.446 22.5158 14.5814 22.3488 14.5814H9.65116C9.48419 14.5814 9.34884 14.446 9.34884 14.2791Z"
      fill="#0C2A33"
    />
    <path
      fill-rule="evenodd"
      clip-rule="evenodd"
      d="M6.02326 4.91088C6.02326 4.40997 6.42932 4.00391 6.93023 4.00391H25.0698C25.5707 4.00391 25.9767 4.40997 25.9767 4.91088V10.7064L28.3269 12.2732C28.7474 12.5535 29 13.0255 29 13.5309V26.6395C29 27.0004 28.8567 27.3464 28.6015 27.6015C28.3464 27.8567 28.0004 28 27.6395 28H4.36047C3.99965 28 3.65361 27.8567 3.39847 27.6015C3.14333 27.3464 3 27.0004 3 26.6395V13.5309C3 13.0255 3.25259 12.5535 3.67313 12.2732L6.02326 10.7064V4.91088ZM25.3721 4.91088C25.3721 4.74391 25.2367 4.60856 25.0698 4.60856H6.93023C6.76326 4.60856 6.62791 4.74391 6.62791 4.91088V14.9457L13.7871 19.9884H18.2129L25.3721 14.9457V4.91088ZM4.00853 12.7763L6.02326 11.4331V14.5198L3.80755 12.9592C3.86425 12.8893 3.93172 12.8275 4.00853 12.7763ZM25.9767 11.4331V14.5198L28.1924 12.9592C28.1357 12.8893 28.0683 12.8275 27.9915 12.7763L25.9767 11.4331ZM3.60465 13.5558V26.6395C3.60465 26.7612 3.63399 26.8799 3.68875 26.986L13.1668 20.2911L3.60465 13.5558ZM13.7874 20.593L4.18614 27.375C4.24281 27.3884 4.30128 27.3954 4.36047 27.3954H27.6395C27.6988 27.3954 27.7573 27.3884 27.814 27.375L18.2127 20.593H13.7874ZM18.8332 20.2911L28.3113 26.986C28.366 26.8798 28.3953 26.7612 28.3953 26.6395V13.5558L18.8332 20.2911Z"
      fill="#0C2A33"
    />
    <path
      fill-rule="evenodd"
      clip-rule="evenodd"
      d="M9.36597 8.23262C9.36597 8.06693 9.50028 7.93262 9.66597 7.93262H17.2848C17.4505 7.93262 17.5848 8.06693 17.5848 8.23262C17.5848 8.3983 17.4505 8.53262 17.2848 8.53262H9.66597C9.50028 8.53262 9.36597 8.3983 9.36597 8.23262ZM19.6302 8.23262C19.6302 8.06693 19.7645 7.93262 19.9302 7.93262H22.3358C22.5015 7.93262 22.6358 8.06693 22.6358 8.23262C22.6358 8.3983 22.5015 8.53262 22.3358 8.53262H19.9302C19.7645 8.53262 19.6302 8.3983 19.6302 8.23262Z"
      fill="#0C2A33"
    />
    <path
      d="M11.625 24.375V25.375C11.625 25.5821 11.7929 25.75 12 25.75C12.2071 25.75 12.375 25.5821 12.375 25.375L12.375 24.375C12.375 24.1679 12.2071 24 12 24C11.7929 24 11.625 24.1679 11.625 24.375Z"
      fill="#EF4550"
    />
    <path
      d="M13.625 25.375L13.625 24.375C13.625 24.1679 13.7929 24 14 24C14.2071 24 14.375 24.1679 14.375 24.375L14.375 25.375C14.375 25.5821 14.2071 25.75 14 25.75C13.7929 25.75 13.625 25.5821 13.625 25.375Z"
      fill="#EF4550"
    />
    <path
      d="M15.625 25.375L15.625 24.375C15.625 24.1679 15.7929 24 16 24C16.2071 24 16.375 24.1679 16.375 24.375L16.375 25.375C16.375 25.5821 16.2071 25.75 16 25.75C15.7929 25.75 15.625 25.5821 15.625 25.375Z"
      fill="#EF4550"
    />
    <path
      d="M17.625 25.375L17.625 24.375C17.625 24.1679 17.7929 24 18 24C18.2071 24 18.375 24.1679 18.375 24.375L18.375 25.375C18.375 25.5821 18.2071 25.75 18 25.75C17.7929 25.75 17.625 25.5821 17.625 25.375Z"
      fill="#EF4550"
    />
    <path
      d="M19.625 24.375L19.625 25.375C19.625 25.5821 19.7929 25.75 20 25.75C20.2071 25.75 20.375 25.5821 20.375 25.375V24.375C20.375 24.1679 20.2071 24 20 24C19.7929 24 19.625 24.1679 19.625 24.375Z"
      fill="#EF4550"
    />
</svg>