<svg viewBox="0 0 24 24" fill="none" xmlns="http://www.w3.org/2000/svg">
  <path
    d="M19.8462 5.5947C19.8462 4.79707 19.1998 4.15302 18.4051 4.15302C17.6104 4.15302 16.9634 4.79707 16.9634 5.5947C16.9634 6.3894 17.6104 7.03345 18.4051 7.03345C19.1998 7.03345 19.8462 6.3894 19.8462 5.5947Z"
    fill="url(#paint0_linear_2752_19784)"
  />
  <path
    d="M21.7666 16.8484C21.7132 18.0185 21.5175 18.6543 21.355 19.0765C21.1367 19.6364 20.8764 20.0367 20.4542 20.4565C20.0367 20.8764 19.6364 21.1362 19.0765 21.352C18.6543 21.5169 18.0161 21.7132 16.8461 21.769C15.5811 21.8247 15.2063 21.8366 11.9985 21.8366C8.7937 21.8366 8.4159 21.8247 7.15094 21.769C5.98089 21.7132 5.34573 21.5169 4.92345 21.352C4.36067 21.1362 3.96334 20.8764 3.54347 20.4565C3.12061 20.0367 2.86028 19.6364 2.645 19.0765C2.48248 18.6543 2.28384 18.0185 2.2334 16.8484C2.17175 15.5835 2.16045 15.2027 2.16045 12.0015C2.16045 8.7937 2.17175 8.4159 2.2334 7.15093C2.28384 5.98088 2.48248 5.34573 2.645 4.9199C2.86028 4.36067 3.12061 3.96272 3.54347 3.54284C3.96334 3.12359 4.36067 2.86321 4.92345 2.645C5.34573 2.47954 5.98089 2.28619 7.15094 2.23046C8.4159 2.17468 8.7937 2.16045 11.9985 2.16045C15.2063 2.16045 15.5811 2.17468 16.8461 2.23046C18.0161 2.28619 18.6543 2.47954 19.0765 2.645C19.6364 2.86321 20.0367 3.12359 20.4542 3.54284C20.8764 3.96272 21.1367 4.36067 21.355 4.9199C21.5175 5.34573 21.7132 5.98088 21.7666 7.15093C21.8253 8.4159 21.8395 8.7937 21.8395 12.0015C21.8395 15.2027 21.8253 15.5835 21.7666 16.8484ZM23.9271 7.05251C23.8683 5.77388 23.6667 4.90032 23.3672 4.13948C23.0624 3.35012 22.6538 2.68116 21.9848 2.01221C21.3188 1.34623 20.6499 0.937605 19.8605 0.629236C19.0967 0.332699 18.2261 0.128675 16.9469 0.0729427C15.6677 0.0112514 15.2591 -1.90735e-06 11.9985 -1.90735e-06C8.74091 -1.90735e-06 8.32935 0.0112514 7.05015 0.0729427C5.77388 0.128675 4.90388 0.332699 4.1365 0.629236C3.35012 0.937605 2.68116 1.34623 2.01519 2.01221C1.34623 2.68116 0.937606 3.35012 0.629815 4.13948C0.333277 4.90032 0.131656 5.77388 0.0699646 7.05251C0.0142331 8.33171 0 8.74091 0 12.0015C0 15.2591 0.0142331 15.6677 0.0699646 16.9469C0.131656 18.2231 0.333277 19.0961 0.629815 19.8605C0.937606 20.6469 1.34623 21.3188 2.01519 21.9848C2.68116 22.6508 3.35012 23.0624 4.1365 23.3702C4.90388 23.6667 5.77388 23.8683 7.05015 23.9271C8.32935 23.9858 8.74091 24 11.9985 24C15.2591 24 15.6677 23.9858 16.9469 23.9271C18.2261 23.8683 19.0967 23.6667 19.8605 23.3702C20.6499 23.0624 21.3188 22.6508 21.9848 21.9848C22.6538 21.3188 23.0624 20.6469 23.3672 19.8605C23.6667 19.0961 23.8683 18.2231 23.9271 16.9469C23.9858 15.6677 24 15.2591 24 12.0015C24 8.74091 23.9858 8.33171 23.9271 7.05251Z"
    fill="url(#paint1_linear_2752_19784)"
  />
  <path
    d="M11.9986 15.9979C9.79067 15.9979 7.99908 14.2093 7.99908 12.0014C7.99908 9.78991 9.79067 7.99894 11.9986 7.99894C14.2071 7.99894 16.0011 9.78991 16.0011 12.0014C16.0011 14.2093 14.2071 15.9979 11.9986 15.9979ZM11.9986 5.8355C8.59509 5.8355 5.83862 8.59788 5.83862 12.0014C5.83862 15.4019 8.59509 18.1614 11.9986 18.1614C15.4021 18.1614 18.1615 15.4019 18.1615 12.0014C18.1615 8.59788 15.4021 5.8355 11.9986 5.8355Z"
    fill="url(#paint2_linear_2752_19784)"
  />
  <defs>
    <linearGradient
      id="paint0_linear_2752_19784"
      x1="0.216381"
      y1="23.7517"
      x2="22.001"
      y2="1.96727"
      gradient-units="userSpaceOnUse"
    >
      <stop stop-color="#FFD521" />
      <stop offset="0.05" stop-color="#FFD521" />
      <stop offset="0.501119" stop-color="#F50000" />
      <stop offset="0.95" stop-color="#B900B4" />
      <stop offset="0.950079" stop-color="#B900B4" />
      <stop offset="1" stop-color="#B900B4" />
    </linearGradient>
    <linearGradient
      id="paint1_linear_2752_19784"
      x1="0.216477"
      y1="23.7817"
      x2="22.0189"
      y2="1.97929"
      gradient-units="userSpaceOnUse"
    >
      <stop stop-color="#FFD521" />
      <stop offset="0.05" stop-color="#FFD521" />
      <stop offset="0.501119" stop-color="#F50000" />
      <stop offset="0.95" stop-color="#B900B4" />
      <stop offset="0.950079" stop-color="#B900B4" />
      <stop offset="1" stop-color="#B900B4" />
    </linearGradient>
    <linearGradient
      id="paint2_linear_2752_19784"
      x1="0.222197"
      y1="23.7823"
      x2="22.0194"
      y2="1.98504"
      gradient-units="userSpaceOnUse"
    >
      <stop stop-color="#FFD521" />
      <stop offset="0.05" stop-color="#FFD521" />
      <stop offset="0.501119" stop-color="#F50000" />
      <stop offset="0.95" stop-color="#B900B4" />
      <stop offset="0.950079" stop-color="#B900B4" />
      <stop offset="1" stop-color="#B900B4" />
    </linearGradient>
  </defs>
</svg>