<svg viewBox="0 0 24 24" fill="none" xmlns="http://www.w3.org/2000/svg">
  <path
    d="M14.576 7.259h-5.15v9.254h5.15V7.26Z"
    fill='#FF5F00'
  />
  <path
    d="M9.752 11.886A5.875 5.875 0 0 1 12 7.258a5.886 5.886 0 1 0 0 9.255 5.874 5.874 0 0 1-2.248-4.628Z"
    fill='#EB001B'
  />
  <path
    d="M21.523 11.886A5.885 5.885 0 0 1 12 16.512a5.887 5.887 0 0 0 0-9.255 5.885 5.885 0 0 1 9.522 4.628ZM20.959 15.534v-.19h.076v-.038h-.195v.038h.077v.19h.041Zm.377 0v-.229h-.06l-.068.157-.069-.157h-.06v.229h.043v-.173l.064.149h.044l.064-.15v.174h.042Z"
    fill='#F79E1B'
  />
</svg>