<svg viewBox="0 0 24 24" fill="none" xmlns="http://www.w3.org/2000/svg">
  <path
    fill-rule="evenodd"
    clip-rule="evenodd"
    d="M10.3861 15.9561H8.43945L9.65605 8.10547H11.6029L10.3861 15.9561Z"
    fill='#005C9C'
  />
  <path
    fill-rule="evenodd"
    clip-rule="evenodd"
    d="M6.80232 8.10547L4.94632 13.505L4.72692 12.3422L4.72712 12.3426L4.07192 8.81254C4.07192 8.81254 3.99292 8.10547 3.14852 8.10547H0.0807219L0.0449219 8.23819C0.0449219 8.23819 0.983322 8.44315 2.08092 9.13594L3.77212 15.9561H5.80032L8.89732 8.10547H6.80232Z"
    fill='#005C9C'
  />
  <path
    fill-rule="evenodd"
    clip-rule="evenodd"
    d="M19.9708 13.1783L20.9938 10.2402L21.5692 13.1783H19.9708ZM22.1133 15.9561H23.9007L22.3423 8.10547H20.7773C20.0545 8.10547 19.8787 8.69053 19.8787 8.69053L16.9757 15.9561H19.0045L19.4105 14.7902H21.8851L22.1133 15.9561Z"
    fill='#005C9C'
  />
  <path
    fill-rule="evenodd"
    clip-rule="evenodd"
    d="M17.1279 9.99323L17.4055 8.30714C17.4055 8.30714 16.5483 7.96484 15.6547 7.96484C14.6887 7.96484 12.3949 8.40836 12.3949 10.5638C12.3949 12.5922 15.0871 12.6174 15.0871 13.6823C15.0871 14.7472 12.6723 14.557 11.8755 13.8852L11.5859 15.6477C11.5859 15.6477 12.4549 16.0912 13.7833 16.0912C15.1115 16.0912 17.1157 15.3686 17.1157 13.4034C17.1157 11.3622 14.3991 11.1722 14.3991 10.2847C14.3991 9.39725 16.2949 9.51128 17.1279 9.99323Z"
    fill='#005C9C'
  />
  <path
    fill-rule="evenodd"
    clip-rule="evenodd"
    d="M4.72712 12.3426L4.07192 8.81254C4.07192 8.81254 3.99292 8.10547 3.14852 8.10547H0.0807219L0.0449219 8.23819C0.0449219 8.23819 1.51952 8.55928 2.93412 9.76132C4.28612 10.9104 4.72712 12.3426 4.72712 12.3426Z"
    fill='#EE9F3F'
  />
</svg>