<svg viewBox="0 0 32 32" fill="none" xmlns="http://www.w3.org/2000/svg">
  <g clipPath="url(#clip0_16436_87627)">
        <circle cx="16" cy="16" r="16" fill="#0C2A33" />
        <path
          d="M16 29C23.1797 29 29 23.1797 29 16C29 8.8203 23.1797 3 16 3C8.8203 3 3 8.8203 3 16C3 18.3704 3.64928 20.6171 4.75876 22.5325C4.84422 22.68 4.86715 22.8561 4.81768 23.0193L3.31855 27.9647C3.17992 28.4153 3.59114 28.8424 4.04662 28.7209L9.24215 27.316C9.39623 27.2743 9.56021 27.2963 9.69994 27.3735C11.5619 28.4015 13.7249 29 16 29Z"
          fill="white"
        />
        <path
          fillRule="evenodd"
          clipRule="evenodd"
          d="M11.2761 25.8252C11.3727 25.6265 11.612 25.5436 11.8107 25.6402C12.8034 26.1224 13.8916 26.4385 15.0396 26.5525C15.2594 26.5744 15.4199 26.7703 15.3981 26.9901C15.3763 27.2099 15.1804 27.3704 14.9605 27.3486C13.7168 27.2251 12.5371 26.8824 11.4611 26.3597C11.2624 26.2632 11.1796 26.0239 11.2761 25.8252ZM18.8874 26.5852C18.9425 26.7991 18.8137 27.0172 18.5998 27.0723C18.0178 27.2221 17.4162 27.3227 16.7998 27.3696C16.5795 27.3864 16.3873 27.2214 16.3706 27.0011C16.3538 26.7809 16.5188 26.5887 16.7391 26.5719C17.3083 26.5286 17.8635 26.4357 18.4004 26.2975C18.6143 26.2425 18.8324 26.3713 18.8874 26.5852Z"
          fill="#EF4550"
        />
        <path
          d="M14.4175 12.6871L12.7612 9.37444C12.6487 9.14948 12.4077 9.01882 12.161 9.0679C11.6105 9.17742 10.6413 9.43966 10.0854 9.99541C7.86389 12.2164 9.23259 16.0237 11.5785 18.9541C13.9245 21.8846 19.542 24.9266 22.0304 21.4427C22.3579 21.0395 22.6494 20.4073 22.831 19.9637C22.9486 19.6765 22.8086 19.3553 22.5251 19.2293L18.8314 17.5877C18.6528 17.5083 18.4466 17.5209 18.279 17.6215L16.2938 18.8126C16.144 18.9025 15.9628 18.9227 15.8048 18.8481C15.4343 18.6733 14.7175 18.2613 14.0673 17.461C13.4254 16.6711 13.1922 15.991 13.1116 15.6689C13.0796 15.5412 13.1083 15.409 13.1761 15.2961L14.3953 13.2641C14.5009 13.0882 14.5092 12.8705 14.4175 12.6871Z"
          fill="#E9F6F8"
        />
        <path
          fillRule="evenodd"
          clipRule="evenodd"
          d="M16.0001 3.4001C9.04131 3.4001 3.4001 9.04131 3.4001 16.0001C3.4001 18.2973 4.02934 20.4751 5.10499 22.3321C5.24377 22.5717 5.28344 22.8621 5.20058 23.1354L3.70145 28.0808L3.70096 28.0824C3.6548 28.2325 3.79155 28.3747 3.9432 28.3346L9.13783 26.9299C9.39593 26.8602 9.66638 26.8981 9.89337 27.0234C11.6985 28.02 13.7953 28.6001 16.0001 28.6001C22.9589 28.6001 28.6001 22.9589 28.6001 16.0001C28.6001 9.04131 22.9589 3.4001 16.0001 3.4001ZM2.6001 16.0001C2.6001 8.59948 8.59948 2.6001 16.0001 2.6001C23.4007 2.6001 29.4001 8.59948 29.4001 16.0001C29.4001 23.4007 23.4007 29.4001 16.0001 29.4001C13.6547 29.4001 11.4255 28.7831 9.50671 27.7238C9.45424 27.6948 9.39672 27.6887 9.34666 27.7022L4.15113 29.1071L4.14978 29.1075C3.39094 29.3098 2.70582 28.5986 2.93607 27.8481L4.43498 22.9034C4.45105 22.8504 4.44486 22.7885 4.41273 22.7331C3.26942 20.7592 2.6001 18.4438 2.6001 16.0001Z"
          fill="#0C2A33"
        />
        <path
          fillRule="evenodd"
          clipRule="evenodd"
          d="M12.0831 8.67569C12.5221 8.58836 12.9334 8.82409 13.1191 9.19566L14.7754 12.5083C14.9284 12.8141 14.9144 13.1768 14.7385 13.47L13.5193 15.502C13.4953 15.542 13.4983 15.5659 13.4998 15.5719C13.5684 15.8457 13.7781 16.4707 14.3779 17.2089C14.9801 17.95 15.6424 18.3292 15.9757 18.4865C15.9953 18.4957 16.0352 18.5015 16.0882 18.4697L18.0734 17.2786C18.3528 17.1109 18.6963 17.0899 18.994 17.2222L22.6877 18.8639C23.1568 19.0724 23.4059 19.6159 23.2014 20.1154C23.0204 20.5574 22.7136 21.2321 22.349 21.6852C20.9533 23.6288 18.6996 23.6975 16.621 22.9821C14.5361 22.2645 12.4836 20.7246 11.2665 19.2042C10.0692 17.7086 9.10419 15.9697 8.72906 14.2963C8.35264 12.6172 8.56353 10.9516 9.8028 9.71263C10.136 9.37954 10.5745 9.15023 10.9798 8.99185C11.3896 8.83174 11.794 8.7332 12.0831 8.67569ZM12.4036 9.55343C12.3644 9.47509 12.2936 9.44949 12.2392 9.46031C11.9779 9.51231 11.6224 9.59966 11.271 9.73699C10.9151 9.87605 10.5911 10.0557 10.3684 10.2784C9.38617 11.2604 9.17065 12.6089 9.50968 14.1213C9.85 15.6394 10.7423 17.2694 11.891 18.7042C13.0198 20.1143 14.949 21.5606 16.8814 22.2257C18.8167 22.8917 20.6118 22.7409 21.7051 21.2103L21.7123 21.2002L21.7201 21.1905C22.0071 20.8373 22.2802 20.2541 22.4611 19.8123C22.4917 19.7373 22.4609 19.6385 22.3628 19.5949L18.6691 17.9533C18.6096 17.9268 18.5409 17.931 18.485 17.9646L16.4998 19.1557C16.2533 19.3036 15.9306 19.3498 15.6343 19.21C15.2266 19.0176 14.4554 18.5728 13.757 17.7134C13.0731 16.8716 12.8164 16.1364 12.7237 15.7662C12.6613 15.5167 12.7218 15.2762 12.8333 15.0904L14.0525 13.0584C14.0877 12.9997 14.0905 12.9272 14.0599 12.866L12.4036 9.55343Z"
          fill="#0C2A33"
        />
        <path
          fillRule="evenodd"
          clipRule="evenodd"
          d="M15.6001 5.0001C15.6001 4.77918 15.7792 4.6001 16.0001 4.6001C20.0987 4.6001 23.6918 6.76332 25.7003 10.0084C25.8166 10.1963 25.7586 10.4428 25.5707 10.5591C25.3829 10.6753 25.1364 10.6173 25.0201 10.4295C23.1512 7.41008 19.8102 5.4001 16.0001 5.4001C15.7792 5.4001 15.6001 5.22101 15.6001 5.0001ZM26.2186 11.9004C26.4265 11.8257 26.6556 11.9336 26.7304 12.1414C27.164 13.3471 27.4001 14.6464 27.4001 16.0001C27.4001 16.221 27.221 16.4001 27.0001 16.4001C26.7792 16.4001 26.6001 16.221 26.6001 16.0001C26.6001 14.7401 26.3804 13.5322 25.9776 12.4122C25.9028 12.2043 26.0107 11.9752 26.2186 11.9004Z"
          fill="#0C2A33"
        />
      </g>
      <defs>
        <clipPath id="clip0_16436_87627">
          <rect width="32" height="32" fill="white" />
        </clipPath>
      </defs>
</svg>